<svg xmlns="http://www.w3.org/2000/svg" viewBox="0 -0.5 8 8" shape-rendering="crispEdges">
<path stroke="#121212" d="M2 0h4M1 1h1M6 1h1M0 2h1M7 2h1M0 3h1M7 3h1M0 4h1M7 4h1M0 5h1M7 5h1M1 6h1M6 6h1M2 7h4" />
<path stroke="#cdb489" d="M2 1h1M5 1h1M1 3h1M6 3h1" />
<path stroke="#622f04" d="M3 1h2M1 4h1M6 4h1M2 5h1M5 5h1" />
<path stroke="#ffe0ab" d="M1 2h1M6 2h1M3 3h2M3 5h2" />
<path stroke="#826838" d="M2 2h1M5 2h1M2 4h1M5 4h1M3 6h2" />
<path stroke="#482303" d="M3 2h2M2 3h1M5 3h1M3 4h2M1 5h1M6 5h1M2 6h1M5 6h1" />
</svg>